<?xml version="1.0" encoding="UTF-8"?>
<svg version="1.1" xmlns="http://www.w3.org/2000/svg" width="494" height="494">
<path d="M0 0 C163.02 0 326.04 0 494 0 C494 163.02 494 326.04 494 494 C330.98 494 167.96 494 0 494 C0 330.98 0 167.96 0 0 Z " fill="#FEFEFE" transform="translate(0,0)"/>
<path d="M0 0 C1.47436523 0.74830078 1.47436523 0.74830078 2.97851562 1.51171875 C5.20764491 2.61205491 7.43681439 3.71230962 9.66601562 4.8125 C10.91096297 5.43279312 12.1557485 6.05341107 13.40039062 6.67431641 C20.38842661 10.15308887 27.41740807 13.54869443 34.43765259 16.96182251 C36.97858706 18.19925354 39.51730838 19.44111647 42.05541992 20.68432617 C49.40226096 24.2799439 56.75207083 27.8559781 64.18554688 31.26953125 C65.88517578 32.0574707 65.88517578 32.0574707 67.61914062 32.86132812 C69.63691737 33.79194067 71.66108889 34.70890121 73.69335938 35.60742188 C83.91172019 40.34114378 91.92016508 47.29098501 96.47851562 57.69921875 C96.83816406 58.44816406 97.1978125 59.19710937 97.56835938 59.96875 C100.53367327 68.86469168 99.4423283 78.89918278 95.54101562 87.26171875 C89.93183176 97.02460963 83.30125892 102.19190217 72.68164062 105.859375 C60.7907221 108.97711583 49.52962006 105.16701149 38.91601562 99.82421875 C37.87155273 99.31101074 36.82708984 98.79780273 35.75097656 98.26904297 C33.36014572 97.09394047 30.97169068 95.91479243 28.58544922 94.73046875 C23.98294556 92.44959196 19.36595537 90.19870534 14.74804688 87.94921875 C13.89463715 87.53346588 13.04122742 87.11771301 12.16195679 86.68936157 C10.40503016 85.83349325 8.64808209 84.97766893 6.89111328 84.12188721 C4.23338526 82.82659206 1.57650054 81.52958421 -1.08007812 80.23193359 C-15.87123873 73.00719869 -30.68775795 65.8361154 -45.52148438 58.69921875 C-45.95098389 60.04149536 -45.95098389 60.04149536 -46.38916016 61.41088867 C-47.33762306 64.16527566 -48.37369588 66.69570308 -49.63867188 69.3125 C-50.28703003 70.6596106 -50.28703003 70.6596106 -50.94848633 72.03393555 C-51.42632568 73.016604 -51.90416504 73.99927246 -52.39648438 75.01171875 C-52.9046167 76.06335205 -53.41274902 77.11498535 -53.9362793 78.19848633 C-55.79280058 82.03461466 -57.65665915 85.86712297 -59.52148438 89.69921875 C-60.32473223 91.35122473 -61.12795355 93.00324361 -61.93115234 94.65527344 C-64.56294542 100.0669663 -67.19772629 105.47719972 -69.83398438 110.88671875 C-70.47506134 112.20236313 -70.47506134 112.20236313 -71.12908936 113.54458618 C-76.20506633 123.95736156 -81.31398747 134.35149423 -86.52148438 144.69921875 C-87.18148437 144.69921875 -87.84148437 144.69921875 -88.52148438 144.69921875 C-88.74835938 145.40046875 -88.97523438 146.10171875 -89.20898438 146.82421875 C-93.23327846 155.63933912 -101.10818137 160.17074868 -109.89648438 163.57421875 C-126.08691394 168.32606715 -140.6489824 159.93987365 -154.77148438 152.94921875 C-156.20994858 152.24410196 -157.64874884 151.53967032 -159.08789062 150.8359375 C-162.56967022 149.13155196 -166.04680445 147.41802879 -169.52148438 145.69921875 C-168.90300232 141.79044763 -167.70424043 138.66153106 -165.96679688 135.11328125 C-165.44013428 134.02966309 -164.91347168 132.94604492 -164.37084961 131.82958984 C-163.80180908 130.67281738 -163.23276855 129.51604492 -162.64648438 128.32421875 C-162.05348012 127.10789534 -161.46112195 125.89125674 -160.86938477 124.67431641 C-159.66485212 122.19786639 -158.45797514 119.72258089 -157.24951172 117.24804688 C-154.79278749 112.20270307 -152.3739999 107.13962276 -149.95898438 102.07421875 C-149.05161741 100.17569276 -148.14406473 98.27725553 -147.23632812 96.37890625 C-145.88588102 93.55387759 -144.53559974 90.72877069 -143.18603516 87.90332031 C-136.31944925 73.53347845 -129.37284341 59.20351188 -122.39648438 44.88671875 C-121.97085205 44.01321777 -121.54521973 43.1397168 -121.10668945 42.23974609 C-119.88855888 39.74037669 -118.66999674 37.24121839 -117.45117188 34.7421875 C-117.08398041 33.98910812 -116.71678894 33.23602875 -116.33847046 32.46012878 C-115.99651642 31.75938736 -115.65456238 31.05864594 -115.30224609 30.33666992 C-115.00534882 29.72812668 -114.70845154 29.11958344 -114.40255737 28.49259949 C-114.11180328 27.90078384 -113.82104919 27.3089682 -113.52148438 26.69921875 C-113.19003418 25.98263092 -112.85858398 25.26604309 -112.51708984 24.52774048 C-111.52148438 22.69921875 -111.52148438 22.69921875 -109.81103516 21.80541992 C-109.11993652 21.61955322 -108.42883789 21.43368652 -107.71679688 21.2421875 C-106.91959229 21.02030762 -106.1223877 20.79842773 -105.30102539 20.56982422 C-104.42502686 20.34439941 -103.54902832 20.11897461 -102.64648438 19.88671875 C-101.73116943 19.63809082 -100.81585449 19.38946289 -99.87280273 19.13330078 C-90.74846041 16.68388407 -81.57083314 14.42830061 -72.39892578 12.16479492 C-66.74187109 10.76740235 -61.10924875 9.35223628 -55.52148438 7.69921875 C-50.92663485 6.36353464 -46.32258241 5.1220793 -41.67773438 3.97265625 C-40.42347656 3.66070312 -39.16921875 3.34875 -37.87695312 3.02734375 C-35.34893975 2.40238401 -32.8203127 1.77990025 -30.29101562 1.16015625 C-29.11925781 0.87140625 -27.9475 0.58265625 -26.74023438 0.28515625 C-25.68771484 0.02782715 -24.63519531 -0.22950195 -23.55078125 -0.49462891 C-21.45877325 -1.05135121 -19.38576994 -1.68291923 -17.33398438 -2.37329102 C-10.62694064 -4.58510171 -6.06956183 -2.97637815 0 0 Z " fill="#010101" transform="translate(267.521484375,246.30078125)"/>
<path d="M0 0 C0.65742188 -0.02900391 1.31484375 -0.05800781 1.9921875 -0.08789062 C13.62354123 -0.23272549 24.32966884 6.48496843 34.5 11.5 C35.94975196 12.20963927 37.39979133 12.91869164 38.85009766 13.62719727 C41.87944916 15.10776568 44.9074751 16.59099612 47.93457031 18.07617188 C54.51423055 21.30213369 61.10855935 24.49784026 67.7019043 27.69570923 C71.36191173 29.47138439 75.02075671 31.24945142 78.6796875 33.02734375 C80.15071102 33.7420353 81.62173966 34.45671629 83.09277344 35.17138672 C83.82057007 35.52497253 84.5483667 35.87855835 85.29821777 36.24285889 C88.95132433 38.01756345 92.60456345 39.79199504 96.2578125 41.56640625 C96.97991913 41.91714706 97.70202576 42.26788788 98.4460144 42.6292572 C102.07704748 44.39289677 105.70814595 46.15640148 109.33935547 47.91967773 C116.05154978 51.17921691 122.76318262 54.43989408 129.47262573 57.70509338 C132.56015551 59.20758275 135.648002 60.7094205 138.73590088 62.21115112 C140.23452928 62.94014425 141.73302573 63.66940868 143.23138428 64.3989563 C150.09709 67.74146339 156.96327107 71.0785081 163.8828125 74.30859375 C164.78966797 74.73205078 165.69652344 75.15550781 166.63085938 75.59179688 C168.23093057 76.33482132 169.8335931 77.07230522 171.43945312 77.80273438 C176.39180199 80.09610398 176.39180199 80.09610398 177.5 82.3125 C176.62304688 84.52050781 176.62304688 84.52050781 175.21875 87.265625 C174.71005371 88.27101318 174.20135742 89.27640137 173.67724609 90.31225586 C172.84700928 91.92112671 172.84700928 91.92112671 172 93.5625 C170.87694569 95.75617344 169.75454632 97.95018229 168.6328125 100.14453125 C168.08786133 101.20752441 167.54291016 102.27051758 166.98144531 103.36572266 C165.7621132 105.79112453 164.60159011 108.22242677 163.4921875 110.69921875 C158.74750802 121.11688457 152.35550276 128.29976342 141.60546875 132.65625 C137.25335045 134.01275441 133.1785637 134.4704314 128.625 134.5 C127.63757813 134.51417969 126.65015625 134.52835938 125.6328125 134.54296875 C119.6562125 134.10329369 114.41034983 131.96327253 109.02734375 129.44140625 C108.4312027 129.16343201 107.83506165 128.88545776 107.22085571 128.59906006 C105.29039866 127.69661507 103.36384106 126.78619387 101.4375 125.875 C100.08656422 125.24035704 98.73557074 124.60583689 97.38452148 123.97143555 C88.65411613 119.86007267 79.99355159 115.62183847 71.38037109 111.26977539 C65.31051644 108.20478274 59.20426004 105.2305683 53.0625 102.3125 C42.55123857 97.31529762 32.08507789 92.22818037 21.625 87.125 C18.25395178 85.48037539 14.88288716 83.83578449 11.51171875 82.19140625 C10.25781342 81.57977127 10.25781342 81.57977127 8.97857666 80.95578003 C3.37106198 78.22169391 -2.24052384 75.49613583 -7.85546875 72.77734375 C-8.59774719 72.41788162 -9.34002563 72.05841949 -10.10479736 71.68806458 C-13.57492895 70.00793509 -17.04563757 68.32901019 -20.51708984 66.65161133 C-23.57052068 65.17570821 -26.61895354 63.68978886 -29.6663208 62.20141602 C-31.60692102 61.2606677 -33.55485994 60.33624926 -35.50341797 59.41210938 C-36.79280955 58.79070957 -38.08204043 58.16897619 -39.37109375 57.546875 C-41.10057251 56.72268066 -41.10057251 56.72268066 -42.86499023 55.88183594 C-45.5 54.3125 -45.5 54.3125 -46.5 51.3125 C-45.73071289 49.09863281 -45.73071289 49.09863281 -44.47265625 46.515625 C-44.01407227 45.56365234 -43.55548828 44.61167969 -43.08300781 43.63085938 C-42.58124023 42.61830078 -42.07947266 41.60574219 -41.5625 40.5625 C-41.05686523 39.52931641 -40.55123047 38.49613281 -40.03027344 37.43164062 C-38.53205872 34.38587164 -37.0175677 31.34866183 -35.5 28.3125 C-35.10474121 27.50876953 -34.70948242 26.70503906 -34.30224609 25.87695312 C-28.44187735 13.99068358 -23.02076932 6.60974856 -10.5 1.3125 C-6.95521396 0.13090465 -3.69293783 0.0518671 0 0 Z " fill="#010101" transform="translate(277.5,61.6875)"/>
<path d="M0 0 C2.62367397 1.25514374 5.20258699 2.57980752 7.7824707 3.92260742 C9.76335065 4.93346969 11.74515056 5.94253087 13.7277832 6.94995117 C14.74259766 7.4667041 15.75741211 7.98345703 16.80297852 8.51586914 C21.55483633 10.90857828 26.35310224 13.20014862 31.1574707 15.48510742 C32.55267944 16.15304321 32.55267944 16.15304321 33.97607422 16.83447266 C39.23941059 19.35019943 44.5196459 21.82439345 49.81762695 24.26635742 C50.96900146 24.80333252 52.12037598 25.34030762 53.30664062 25.89355469 C55.54480054 26.93715418 57.78833251 27.96932556 60.03759766 28.98876953 C61.04395264 29.46064697 62.05030762 29.93252441 63.0871582 30.41870117 C63.98289551 30.83047607 64.87863281 31.24225098 65.80151367 31.66650391 C67.8449707 33.04760742 67.8449707 33.04760742 68.75756836 34.90478516 C68.9446912 39.49243092 66.26347002 43.61759751 64.3449707 47.67260742 C63.9221582 48.6394043 63.4993457 49.60620117 63.0637207 50.60229492 C62.6305957 51.52526367 62.1974707 52.44823242 61.7512207 53.39916992 C61.36256836 54.24302246 60.97391602 55.086875 60.57348633 55.95629883 C58.57441191 58.37495299 57.03346458 58.82973375 54.02822876 59.52191162 C51.42711076 60.14822183 48.93981985 60.98488896 46.40722656 61.84765625 C45.39184311 62.19174026 44.37645966 62.53582428 43.33030701 62.89033508 C42.25104446 63.25805527 41.17178192 63.62577545 40.05981445 64.00463867 C38.92653214 64.38947922 37.79324982 64.77431976 36.62562561 65.17082214 C34.23077286 65.9844896 31.83620166 66.79898618 29.44189453 67.61425781 C25.8198024 68.84739786 22.1967223 70.07759848 18.57348633 71.30737305 C7.30061146 75.13791629 -3.968033 78.97174506 -15.1550293 83.04760742 C-12.11699241 86.76920261 -9.1214772 90.18680139 -5.46362305 93.30541992 C-1.11975807 97.05839518 3.0930406 100.93617709 7.2824707 104.86010742 C8.00112305 105.52719727 8.71977539 106.19428711 9.46020508 106.8815918 C10.14276367 107.52032227 10.82532227 108.15905273 11.52856445 108.81713867 C12.14272217 109.39052979 12.75687988 109.9639209 13.38964844 110.5546875 C14.8449707 112.04760742 14.8449707 112.04760742 15.8449707 114.04760742 C9.56736956 116.57052041 3.30485087 118.27122715 -3.2800293 119.79760742 C-4.89844727 120.17949219 -4.89844727 120.17949219 -6.54956055 120.5690918 C-10.08336202 121.40116706 -13.61899031 122.22509607 -17.1550293 123.04760742 C-19.63161559 123.62563047 -22.10817779 124.20375681 -24.5847168 124.78198242 C-28.38365304 125.66822879 -32.18268709 126.55404944 -35.98193359 127.43896484 C-52.96838353 131.39734324 -69.92316857 135.4246906 -86.78930664 139.87036133 C-98.85564905 143.03961338 -111.00165145 145.85535844 -123.1550293 148.66870117 C-125.67588917 149.25322216 -128.19672194 149.83785999 -130.7175293 150.42260742 C-131.97412354 150.71321045 -133.23071777 151.00381348 -134.52539062 151.30322266 C-141.11060674 152.83565252 -147.67829162 154.41466411 -154.22924805 156.08666992 C-154.87910172 156.2520224 -155.52895538 156.41737488 -156.19850159 156.58773804 C-159.31764733 157.38261925 -162.43413951 158.18625905 -165.54785156 159.00219727 C-167.20192017 159.42686279 -167.20192017 159.42686279 -168.8894043 159.86010742 C-169.86103516 160.11405273 -170.83266602 160.36799805 -171.83374023 160.62963867 C-174.1550293 161.04760742 -174.1550293 161.04760742 -176.1550293 160.04760742 C-149.64216493 142.07950375 -123.01724979 124.29475008 -96.24542236 106.71479797 C-88.85851955 101.8607458 -81.50079843 96.96363289 -74.1550293 92.04760742 C-75.94266615 88.17481878 -78.13520151 86.02067987 -81.3425293 83.17260742 C-82.42794099 82.19951428 -83.5125374 81.22551118 -84.59643555 80.25073242 C-85.46099365 79.47632813 -85.46099365 79.47632813 -86.34301758 78.6862793 C-89.52734522 75.80656936 -92.64971601 72.86075028 -95.7800293 69.92260742 C-101.50915571 64.55904548 -107.29064613 59.26345881 -113.1550293 54.04760742 C-110.63625003 51.17046088 -107.85687172 49.69293944 -104.4675293 47.96557617 C-103.30785645 47.37059326 -102.14818359 46.77561035 -100.95336914 46.16259766 C-99.68727607 45.52006109 -98.42116223 44.87756544 -97.1550293 44.23510742 C-95.84302444 43.56393636 -94.53134268 42.89213336 -93.2199707 42.21972656 C-90.51881496 40.83520992 -87.81638266 39.45323371 -85.11303711 38.07299805 C-79.23815683 35.07046376 -73.38460489 32.02701272 -67.5300293 28.98510742 C-65.30876173 27.83259675 -63.08740736 26.68025337 -60.8659668 25.52807617 C-59.76607422 24.95750488 -58.66618164 24.38693359 -57.53295898 23.79907227 C-54.06650927 22.00170957 -50.59915831 20.20609575 -47.1315918 18.41088867 C-45.97377197 17.81099121 -44.81595215 17.21109375 -43.62304688 16.59301758 C-41.33743754 15.40974612 -39.05083835 14.22838439 -36.76318359 13.04907227 C-31.62413647 10.39438475 -26.50925411 7.71143257 -21.44799805 4.91088867 C-20.57852539 4.43490234 -19.70905273 3.95891602 -18.81323242 3.46850586 C-17.22217479 2.5937386 -15.63814264 1.70600556 -14.06323242 0.80249023 C-8.73187708 -2.11424849 -5.74581589 -2.53930302 0 0 Z " fill="#010101" transform="translate(236.155029296875,123.952392578125)"/>
</svg>
