<?xml version="1.0" encoding="UTF-8"?>
<svg version="1.1" xmlns="http://www.w3.org/2000/svg" width="494" height="494">
<path d="M0 0 C163.02 0 326.04 0 494 0 C494 163.02 494 326.04 494 494 C330.98 494 167.96 494 0 494 C0 330.98 0 167.96 0 0 Z " fill="#FEFEFE" transform="translate(0,0)"/>
<path d="M0 0 C1.43402416 0.74144432 2.86880978 1.48141708 4.30419922 2.22021484 C5.09187683 2.62834412 5.87955444 3.03647339 6.69110107 3.45697021 C11.48421911 5.9118037 16.32720045 8.26568984 21.1640625 10.6328125 C23.3314066 11.69590973 25.49872386 12.7590617 27.66601562 13.82226562 C29.30993286 14.62796997 29.30993286 14.62796997 30.98706055 15.44995117 C34.28692056 17.06757705 37.58586663 18.68705598 40.88476562 20.30664062 C41.96454681 20.83603241 43.044328 21.36542419 44.15682983 21.91085815 C46.32102167 22.97191701 48.48462096 24.03418531 50.64761353 25.09768677 C55.97941865 27.71145363 61.32599532 30.28018481 66.71826172 32.76708984 C67.75446152 33.24889206 68.79066132 33.73069427 69.85826111 34.22709656 C71.79776133 35.12582666 73.74222549 36.0139616 75.69264221 36.88874817 C83.34138844 40.44481618 90.02667852 45.10945998 94.62890625 52.33203125 C95.32113281 53.38583984 95.32113281 53.38583984 96.02734375 54.4609375 C100.84643721 63.53126946 101.07892341 75.67748109 98.15625 85.43359375 C92.93943543 96.42368311 85.502849 102.354537 74.22265625 106.51953125 C60.28586394 110.63202734 48.55944096 105.13716704 36.21484375 98.98828125 C35.29862747 98.53780426 34.38241119 98.08732727 33.43843079 97.62319946 C30.49940937 96.17701358 27.56419072 94.72328441 24.62890625 93.26953125 C21.58522124 91.76979935 18.54056051 90.27206143 15.49583435 88.77444458 C13.49760413 87.79142292 11.4996863 86.80776596 9.50209045 85.82345581 C2.00506315 82.13083292 -5.51505477 78.49113741 -13.05859375 74.89453125 C-20.37908426 71.4017482 -27.66900525 67.85976489 -34.89575195 64.17626953 C-38.12580301 62.53746365 -41.35938844 61.05546071 -44.74609375 59.76953125 C-44.97844727 60.55642334 -45.21080078 61.34331543 -45.45019531 62.15405273 C-47.12413264 66.82423696 -49.28016569 71.17546576 -51.48046875 75.6171875 C-51.95082047 76.57456818 -52.42117218 77.53194885 -52.90577698 78.51834106 C-54.43254822 81.62455732 -55.96436401 84.7282576 -57.49609375 87.83203125 C-59.59009417 92.08908118 -61.68159431 96.34735849 -63.7734375 100.60546875 C-64.28911789 101.65419662 -64.80479828 102.7029245 -65.33610535 103.78343201 C-69.61531333 112.48958046 -73.85253556 121.21534005 -78.05859375 129.95703125 C-78.6196582 131.12306885 -79.18072266 132.28910645 -79.75878906 133.49047852 C-80.70618386 135.45970626 -81.65300536 137.42921009 -82.59887695 139.39916992 C-83.63093182 141.53158548 -84.68087423 143.65352442 -85.74609375 145.76953125 C-86.40609375 145.76953125 -87.06609375 145.76953125 -87.74609375 145.76953125 C-87.99617188 146.50171875 -88.24625 147.23390625 -88.50390625 147.98828125 C-91.71369431 155.17497654 -97.96227572 159.78160787 -105.05859375 162.76953125 C-118.08860849 167.67494856 -128.83151895 165.81283812 -141.48364258 160.14428711 C-145.33311641 158.35637382 -149.13434516 156.47371136 -152.93359375 154.58203125 C-154.2541293 153.93337276 -155.57509134 153.28558179 -156.89648438 152.63867188 C-160.85418821 150.69800764 -164.80354244 148.7408069 -168.74609375 146.76953125 C-168.27498235 140.60411686 -165.43293998 135.77143933 -162.62109375 130.39453125 C-159.38825779 124.17267658 -156.33844726 117.92291837 -153.578125 111.4765625 C-148.96303802 100.74154492 -143.72646392 90.30858749 -138.55859375 79.83203125 C-136.5048837 75.6557465 -134.45360153 71.47827091 -132.40234375 67.30078125 C-131.90620071 66.29112808 -131.41005768 65.28147491 -130.89888 64.2412262 C-126.61144889 55.51092176 -122.38194419 46.75453891 -118.1965332 37.97485352 C-117.40525432 36.3153896 -116.60716137 34.65914506 -115.80004883 33.00732422 C-115.09635412 31.51321588 -114.44203616 29.99486744 -113.83862305 28.45751953 C-112.11759197 24.31905959 -111.46053318 23.07182405 -107.1640625 21.25390625 C-105.76007338 20.97591674 -104.34887278 20.73271865 -102.93359375 20.51953125 C-101.39409888 20.22359462 -99.85504133 19.92537485 -98.31640625 19.625 C-97.54586914 19.48497559 -96.77533203 19.34495117 -95.98144531 19.20068359 C-92.71211547 18.57009857 -89.51945605 17.70929708 -86.30859375 16.83203125 C-85.07109375 16.49816406 -83.83359375 16.16429687 -82.55859375 15.8203125 C-80.01424037 15.11905117 -77.47254273 14.40808286 -74.93359375 13.6875 C-64.20024503 10.64253233 -53.39862568 7.91725208 -42.5670166 5.2479248 C-33.23668393 2.94583203 -23.98858858 0.49803222 -14.828125 -2.41796875 C-8.85624131 -3.99230564 -5.33577823 -2.85371705 0 0 Z " fill="#E1B906" transform="translate(266.74609375,246.23046875)"/>
<path d="M0 0 C1.16789062 -0.01417969 2.33578125 -0.02835938 3.5390625 -0.04296875 C14.35773126 0.60703273 22.86543701 5.06338694 32.375 9.8125 C33.93373335 10.58176636 35.4929879 11.34997742 37.05273438 12.1171875 C40.2623893 13.6968895 43.46983869 15.28094241 46.67578125 16.86816406 C53.05136292 20.02036084 59.45364868 23.11694327 65.85717773 26.21185303 C69.2602572 27.85729239 72.6613201 29.50688872 76.0625 31.15625 C76.74147339 31.48543427 77.42044678 31.81461853 78.11999512 32.15377808 C85.30501322 35.63758069 92.48744695 39.12670059 99.66973877 42.61611938 C106.23789541 45.80712261 112.80636644 48.99747864 119.375 52.1875 C120.09337036 52.53637268 120.81174072 52.88524536 121.55187988 53.24468994 C125.83852216 55.32632931 130.1256424 57.4069805 134.41308594 59.48696899 C136.47380363 60.48728374 138.5338251 61.48902066 140.59375 62.4909668 C147.0306 65.6187697 153.47882181 68.71700848 159.9609375 71.75 C161.71833252 72.57697388 161.71833252 72.57697388 163.51123047 73.4206543 C165.69624327 74.44655413 167.88518699 75.46413789 170.07861328 76.47192383 C171.0323584 76.92075928 171.98610352 77.36959473 172.96875 77.83203125 C173.80083984 78.21721924 174.63292969 78.60240723 175.49023438 78.99926758 C177.375 80.1875 177.375 80.1875 178.375 83.1875 C177.40275892 85.68978216 176.36825904 88.01829033 175.18359375 90.41796875 C174.84127213 91.12722 174.4989505 91.83647125 174.14625549 92.56721497 C173.41703775 94.07165949 172.68283699 95.57369722 171.9440918 97.07348633 C170.82839757 99.34266636 169.73245494 101.62058368 168.63867188 103.90039062 C159.75004613 122.23866489 159.75004613 122.23866489 152.5625 127.4375 C151.97855469 127.87578125 151.39460937 128.3140625 150.79296875 128.765625 C140.65034759 134.72994504 130.98392789 136.88521374 119.375 134.1875 C109.41653325 130.52319317 100.0796519 125.38486093 90.70947266 120.4453125 C84.52324993 117.19894471 78.22385989 114.19014997 71.92440796 111.17138672 C68.48611915 109.52072137 65.05600748 107.85323213 61.625 106.1875 C60.25003872 105.52075348 58.87503873 104.85408679 57.5 104.1875 C23.125 87.52083333 -11.25 70.85416667 -45.625 54.1875 C-44.97685257 49.70358604 -43.27434605 45.88523277 -41.34375 41.83203125 C-40.84518494 40.77951424 -40.84518494 40.77951424 -40.33654785 39.70573425 C-39.63026926 38.22244427 -38.92068058 36.74072646 -38.20800781 35.26049805 C-37.14033017 33.03199775 -36.09736803 30.79301502 -35.0546875 28.55273438 C-29.21019947 16.23761835 -22.84746744 6.318963 -9.625 1.1875 C-6.23335871 0.0569529 -3.5730555 0.01946109 0 0 Z " fill="#E1B906" transform="translate(276.625,61.8125)"/>
<path d="M0 0 C3.30518649 1.70138766 6.62431551 3.37526395 9.94119263 5.05371094 C10.60416855 5.39015625 11.26714447 5.72660156 11.95021057 6.07324219 C17.98483571 9.1310595 24.06675891 12.08439987 30.17556763 14.99121094 C31.10014771 15.43118408 32.02472778 15.87115723 32.97732544 16.32446289 C40.54752866 19.91572017 48.13428711 23.47160953 55.73806763 26.99121094 C54.07927982 32.45807613 51.83829179 37.54360302 49.36306763 42.67871094 C48.99568481 43.53271484 48.628302 44.38671875 48.24978638 45.26660156 C46.4775275 48.87057209 45.14103873 51.47486997 41.24862671 52.90740967 C40.29026917 53.0971637 39.33191162 53.28691772 38.34451294 53.48242188 C31.617631 54.9732329 25.24208658 57.09043203 18.74588013 59.37011719 C17.55630707 59.78285385 16.36673401 60.19559052 15.14111328 60.62083435 C12.01540917 61.70629839 8.89128032 62.79613791 5.76791382 63.88830566 C2.58993607 64.9984442 -0.58995058 66.10308547 -3.76974487 67.20800781 C-7.34854149 68.45187024 -10.92707977 69.69642426 -14.5043335 70.94471741 C-15.56628937 71.31527756 -16.62824524 71.68583771 -17.72238159 72.06762695 C-18.64993256 72.39167007 -19.57748352 72.7157132 -20.53314209 73.04957581 C-23.43590987 74.05124608 -26.34721333 75.02492823 -29.26193237 75.99121094 C-29.26193237 76.65121094 -29.26193237 77.31121094 -29.26193237 77.99121094 C-27.76728736 79.52262543 -27.76728736 79.52262543 -25.80099487 81.10839844 C-20.49707684 85.61824684 -15.48288627 90.40698437 -10.44161987 95.20605469 C-7.28158639 98.20007192 -4.13793395 101.13685337 -0.73849487 103.85839844 C0.07877075 104.56222656 0.89603638 105.26605469 1.73806763 105.99121094 C1.73806763 106.65121094 1.73806763 107.31121094 1.73806763 107.99121094 C-11.86008017 111.58796936 -25.45553049 115.10759541 -39.19015503 118.14624023 C-46.73142486 119.8306998 -54.19053411 121.77589739 -61.65744019 123.76098633 C-69.0668843 125.71615183 -76.51185753 127.43790393 -83.99240112 129.09667969 C-91.59577603 130.79957535 -99.1184036 132.75647228 -106.64767456 134.75854492 C-114.15632734 136.74010105 -121.70229663 138.48523264 -129.28244019 140.16918945 C-135.06359095 141.46348466 -140.79292873 142.88392965 -146.51193237 144.42871094 C-161.31044177 148.42114899 -176.29852954 151.68169522 -191.26193237 154.99121094 C-187.46378298 150.67905579 -182.7291223 147.84704971 -177.94943237 144.74902344 C-177.02589966 144.14420135 -176.10236694 143.53937927 -175.15084839 142.91622925 C-172.19082921 140.97832731 -169.22676817 139.04673431 -166.26193237 137.11621094 C-154.2272572 129.27066817 -142.26506778 121.36547108 -130.5296936 113.07727051 C-121.98659016 107.05782412 -113.26421819 101.32527934 -104.51193237 95.61621094 C-102.91669052 94.57223003 -101.32163804 93.52795968 -99.72677612 92.48339844 C-95.90731547 89.98269255 -92.08538698 87.48580552 -88.26193237 84.99121094 C-91.02772488 81.58341806 -93.6708697 78.43409221 -97.04708862 75.61230469 C-101.40004049 71.8962208 -105.55072979 67.99504924 -109.69943237 64.05371094 C-115.46766349 58.59668139 -121.25877927 53.19052303 -127.26193237 47.99121094 C-126.26193237 44.99121094 -126.26193237 44.99121094 -124.61398315 43.89135742 C-123.90225952 43.55177002 -123.19053589 43.21218262 -122.45724487 42.86230469 C-121.65681763 42.47276611 -120.85639038 42.08322754 -120.03170776 41.68188477 C-119.15893188 41.2683374 -118.28615601 40.85479004 -117.38693237 40.42871094 C-115.53322116 39.52680312 -113.68037444 38.62311663 -111.82833862 37.71777344 C-110.88877319 37.26047852 -109.94920776 36.80318359 -108.98117065 36.33203125 C-105.05568252 34.39642514 -101.18809371 32.35929484 -97.32443237 30.30371094 C-89.16515994 25.97777684 -80.96822886 21.72696931 -72.76193237 17.49121094 C-61.53068254 11.69287974 -61.53068254 11.69287974 -50.33004761 5.83569336 C-48.80816624 5.03508278 -47.28429419 4.23824267 -45.75827026 3.44555664 C-42.00102497 1.48483695 -38.31850264 -0.5497324 -34.67990112 -2.72363281 C-33.92676636 -3.15949707 -33.17363159 -3.59536133 -32.39767456 -4.04443359 C-30.98772729 -4.86340563 -29.59195207 -5.70758193 -28.21603394 -6.58251953 C-18.7246347 -12.0113305 -8.65661791 -4.4574337 0 0 Z " fill="#E1B906" transform="translate(250.26193237304688,131.0087890625)"/>
</svg>
